<svg width="157" height="31" viewBox="0 0 157 31" fill="none" xmlns="http://www.w3.org/2000/svg">
<path d="M11.7363 14.281V14.8155L14.7781 11.7737C14.9892 11.5626 15.3316 11.5626 15.544 11.7737C15.7551 11.9848 15.7551 12.3272 15.544 12.5396L12.5022 15.5814H13.0367C15.517 15.5814 17.5357 13.5625 17.5357 11.0823V9.78198H16.2367C13.7551 9.78198 11.7377 11.8008 11.7377 14.281H11.7363Z" fill="#8F8F8F"/>
<path d="M6.15496 9.78296H4.85596V11.0833C4.85596 13.5636 6.87481 15.5824 9.35501 15.5824H9.8895L6.84769 12.5405C6.6366 12.3295 6.6366 11.9871 6.84769 11.7747C7.05878 11.5636 7.40113 11.5636 7.61355 11.7747L10.6554 14.8165V14.282C10.6554 11.8017 8.6365 9.78296 6.15631 9.78296H6.15496Z" fill="#8F8F8F"/>
<path d="M7.41455 22.876V27.0383C7.41455 27.5633 7.84215 27.9909 8.36715 27.9909H14.0259C14.551 27.9909 14.9786 27.5633 14.9786 27.0383V22.876C13.7864 23.263 12.5159 23.4741 11.1979 23.4741C9.87864 23.4741 8.60804 23.263 7.41732 22.876H7.41455Z" fill="#8F8F8F"/>
<path d="M11.1957 0C5.02281 0 0 5.02281 0 11.1957C0 17.3685 5.02281 22.3913 11.1957 22.3913C17.3699 22.3913 22.3913 17.3685 22.3913 11.1957C22.3913 5.02281 17.3685 0 11.1957 0ZM18.619 11.082C18.619 14.1604 16.1157 16.6636 13.0375 16.6636H11.7371V21.0275C11.7371 21.3266 11.4949 21.5688 11.1959 21.5688C10.8968 21.5688 10.6546 21.3266 10.6546 21.0275V16.6636H9.35427C6.27726 16.6636 3.77272 14.1603 3.77272 11.082V9.24044C3.77272 8.9414 4.01493 8.69919 4.31397 8.69919H6.15422C8.37877 8.69919 10.2989 10.0117 11.1947 11.8993C12.0904 10.0117 14.0105 8.69919 16.2352 8.69919H18.0754C18.3745 8.69919 18.6167 8.9414 18.6167 9.24044V11.082H18.619Z" fill="white"/>
<path d="M9.91556 29.5766C9.91556 29.9365 10.2119 30.2301 10.5759 30.2301H11.8153C12.1793 30.2301 12.4756 29.9365 12.4756 29.5766V29.0732H9.91553L9.91556 29.5766Z" fill="white"/>
<path d="M148.212 5V24.5H144.556V5H148.212ZM147.691 17.1494H146.688C146.697 16.193 146.824 15.3128 147.069 14.5088C147.315 13.6963 147.666 12.9938 148.123 12.4014C148.58 11.8005 149.126 11.335 149.761 11.0049C150.404 10.6748 151.115 10.5098 151.894 10.5098C152.571 10.5098 153.184 10.6071 153.734 10.8018C154.293 10.988 154.771 11.2926 155.169 11.7158C155.575 12.1305 155.888 12.6764 156.108 13.3535C156.328 14.0306 156.438 14.8516 156.438 15.8164V24.5H152.757V15.791C152.757 15.1816 152.668 14.7035 152.49 14.3564C152.321 14.001 152.071 13.7513 151.741 13.6074C151.42 13.4551 151.022 13.3789 150.548 13.3789C150.023 13.3789 149.575 13.4762 149.202 13.6709C148.838 13.8656 148.546 14.1364 148.326 14.4834C148.106 14.8219 147.945 15.2197 147.844 15.6768C147.742 16.1338 147.691 16.6247 147.691 17.1494Z" fill="white"/>
<path d="M136.761 21.8975C137.209 21.8975 137.607 21.8128 137.954 21.6436C138.301 21.4658 138.572 21.2204 138.767 20.9072C138.97 20.5856 139.076 20.209 139.084 19.7773H142.524C142.516 20.7422 142.258 21.6012 141.75 22.3545C141.242 23.0993 140.561 23.6875 139.706 24.1191C138.851 24.5423 137.895 24.7539 136.837 24.7539C135.771 24.7539 134.84 24.5762 134.044 24.2207C133.257 23.8652 132.601 23.3743 132.076 22.748C131.551 22.1133 131.158 21.377 130.896 20.5391C130.633 19.6927 130.502 18.7871 130.502 17.8223V17.4541C130.502 16.4808 130.633 15.5752 130.896 14.7373C131.158 13.891 131.551 13.1546 132.076 12.5283C132.601 11.8936 133.257 11.3984 134.044 11.043C134.831 10.6875 135.754 10.5098 136.812 10.5098C137.937 10.5098 138.923 10.7256 139.77 11.1572C140.624 11.5889 141.293 12.2067 141.775 13.0107C142.266 13.8063 142.516 14.75 142.524 15.8418H139.084C139.076 15.3848 138.978 14.9701 138.792 14.5977C138.614 14.2253 138.352 13.929 138.005 13.709C137.666 13.4805 137.247 13.3662 136.748 13.3662C136.215 13.3662 135.779 13.4805 135.44 13.709C135.102 13.929 134.84 14.2337 134.653 14.623C134.467 15.0039 134.336 15.4398 134.26 15.9307C134.192 16.4131 134.158 16.9209 134.158 17.4541V17.8223C134.158 18.3555 134.192 18.8675 134.26 19.3584C134.327 19.8493 134.454 20.2852 134.641 20.666C134.835 21.0469 135.102 21.3473 135.44 21.5674C135.779 21.7874 136.219 21.8975 136.761 21.8975Z" fill="white"/>
<path d="M123.367 24.7539C122.301 24.7539 121.344 24.5846 120.498 24.2461C119.652 23.8991 118.932 23.4209 118.34 22.8115C117.756 22.2021 117.307 21.4954 116.994 20.6914C116.681 19.8789 116.524 19.0156 116.524 18.1016V17.5938C116.524 16.5527 116.673 15.6006 116.969 14.7373C117.265 13.874 117.688 13.125 118.238 12.4902C118.797 11.8555 119.474 11.3688 120.27 11.0303C121.065 10.6833 121.962 10.5098 122.961 10.5098C123.934 10.5098 124.798 10.6706 125.551 10.9922C126.304 11.3138 126.935 11.7708 127.442 12.3633C127.959 12.9557 128.348 13.6667 128.61 14.4961C128.873 15.3171 129.004 16.2311 129.004 17.2383V18.7617H118.086V16.3242H125.411V16.0449C125.411 15.5371 125.318 15.0843 125.132 14.6865C124.954 14.2803 124.683 13.9587 124.319 13.7217C123.955 13.4847 123.49 13.3662 122.923 13.3662C122.44 13.3662 122.026 13.472 121.679 13.6836C121.332 13.8952 121.048 14.1914 120.828 14.5723C120.617 14.9531 120.456 15.4017 120.346 15.918C120.244 16.4258 120.193 16.9844 120.193 17.5938V18.1016C120.193 18.6517 120.27 19.1595 120.422 19.625C120.583 20.0905 120.807 20.4925 121.095 20.8311C121.391 21.1696 121.746 21.432 122.161 21.6182C122.584 21.8044 123.062 21.8975 123.596 21.8975C124.256 21.8975 124.869 21.7705 125.437 21.5166C126.012 21.2542 126.507 20.8607 126.922 20.3359L128.699 22.2656C128.411 22.6803 128.018 23.0781 127.519 23.459C127.028 23.8398 126.435 24.153 125.741 24.3984C125.047 24.6354 124.256 24.7539 123.367 24.7539Z" fill="white"/>
<path d="M110.608 6.01562V24.5H106.812V6.01562H110.608ZM116.296 6.01562V8.99902H101.214V6.01562H116.296Z" fill="white"/>
<path d="M99.0938 5V24.5H95.4248V5H99.0938Z" fill="white"/>
<path d="M87.5156 24.7539C86.4492 24.7539 85.4928 24.5846 84.6465 24.2461C83.8001 23.8991 83.0807 23.4209 82.4883 22.8115C81.9043 22.2021 81.4557 21.4954 81.1426 20.6914C80.8294 19.8789 80.6729 19.0156 80.6729 18.1016V17.5938C80.6729 16.5527 80.821 15.6006 81.1172 14.7373C81.4134 13.874 81.8366 13.125 82.3867 12.4902C82.9453 11.8555 83.6224 11.3688 84.418 11.0303C85.2135 10.6833 86.1107 10.5098 87.1094 10.5098C88.0827 10.5098 88.946 10.6706 89.6992 10.9922C90.4525 11.3138 91.083 11.7708 91.5908 12.3633C92.1071 12.9557 92.4964 13.6667 92.7588 14.4961C93.0212 15.3171 93.1523 16.2311 93.1523 17.2383V18.7617H82.2344V16.3242H89.5596V16.0449C89.5596 15.5371 89.4665 15.0843 89.2803 14.6865C89.1025 14.2803 88.8317 13.9587 88.4678 13.7217C88.1038 13.4847 87.6383 13.3662 87.0713 13.3662C86.5889 13.3662 86.1742 13.472 85.8271 13.6836C85.4801 13.8952 85.1966 14.1914 84.9766 14.5723C84.765 14.9531 84.6042 15.4017 84.4941 15.918C84.3926 16.4258 84.3418 16.9844 84.3418 17.5938V18.1016C84.3418 18.6517 84.418 19.1595 84.5703 19.625C84.7311 20.0905 84.9554 20.4925 85.2432 20.8311C85.5394 21.1696 85.8949 21.432 86.3096 21.6182C86.7327 21.8044 87.2109 21.8975 87.7441 21.8975C88.4043 21.8975 89.0179 21.7705 89.585 21.5166C90.1605 21.2542 90.6556 20.8607 91.0703 20.3359L92.8477 22.2656C92.5599 22.6803 92.1663 23.0781 91.667 23.459C91.1761 23.8398 90.5837 24.153 89.8896 24.3984C89.1956 24.6354 88.4043 24.7539 87.5156 24.7539Z" fill="white"/>
<path d="M73.4746 24.7539C72.4082 24.7539 71.4518 24.5846 70.6055 24.2461C69.7591 23.8991 69.0397 23.4209 68.4473 22.8115C67.8633 22.2021 67.4147 21.4954 67.1016 20.6914C66.7884 19.8789 66.6318 19.0156 66.6318 18.1016V17.5938C66.6318 16.5527 66.7799 15.6006 67.0762 14.7373C67.3724 13.874 67.7956 13.125 68.3457 12.4902C68.9043 11.8555 69.5814 11.3688 70.377 11.0303C71.1725 10.6833 72.0697 10.5098 73.0684 10.5098C74.0417 10.5098 74.9049 10.6706 75.6582 10.9922C76.4115 11.3138 77.042 11.7708 77.5498 12.3633C78.0661 12.9557 78.4554 13.6667 78.7178 14.4961C78.9801 15.3171 79.1113 16.2311 79.1113 17.2383V18.7617H68.1934V16.3242H75.5186V16.0449C75.5186 15.5371 75.4255 15.0843 75.2393 14.6865C75.0615 14.2803 74.7907 13.9587 74.4268 13.7217C74.0628 13.4847 73.5973 13.3662 73.0303 13.3662C72.5479 13.3662 72.1331 13.472 71.7861 13.6836C71.4391 13.8952 71.1556 14.1914 70.9355 14.5723C70.724 14.9531 70.5632 15.4017 70.4531 15.918C70.3516 16.4258 70.3008 16.9844 70.3008 17.5938V18.1016C70.3008 18.6517 70.377 19.1595 70.5293 19.625C70.6901 20.0905 70.9144 20.4925 71.2021 20.8311C71.4984 21.1696 71.8538 21.432 72.2686 21.6182C72.6917 21.8044 73.1699 21.8975 73.7031 21.8975C74.3633 21.8975 74.9769 21.7705 75.5439 21.5166C76.1195 21.2542 76.6146 20.8607 77.0293 20.3359L78.8066 22.2656C78.5189 22.6803 78.1253 23.0781 77.626 23.459C77.1351 23.8398 76.5426 24.153 75.8486 24.3984C75.1546 24.6354 74.3633 24.7539 73.4746 24.7539Z" fill="white"/>
<path d="M65.0703 10.7637V13.3535H57.0723V10.7637H65.0703ZM59.0527 7.37402H62.709V20.3613C62.709 20.7591 62.7598 21.0638 62.8613 21.2754C62.9714 21.487 63.1322 21.6351 63.3438 21.7197C63.5553 21.7959 63.8219 21.834 64.1436 21.834C64.3721 21.834 64.5752 21.8255 64.7529 21.8086C64.9391 21.7832 65.0957 21.7578 65.2227 21.7324L65.2354 24.4238C64.9222 24.5254 64.5837 24.6058 64.2197 24.665C63.8558 24.7243 63.4538 24.7539 63.0137 24.7539C62.2096 24.7539 61.5072 24.6227 60.9062 24.3604C60.3138 24.0895 59.8568 23.6579 59.5352 23.0654C59.2135 22.473 59.0527 21.6943 59.0527 20.7295V7.37402Z" fill="white"/>
<path d="M51.8418 21.4023V15.2832C51.8418 14.8431 51.7699 14.4665 51.626 14.1533C51.4821 13.8317 51.2578 13.582 50.9531 13.4043C50.6569 13.2266 50.2718 13.1377 49.7979 13.1377C49.3916 13.1377 49.0404 13.2096 48.7441 13.3535C48.4479 13.4889 48.2194 13.6878 48.0586 13.9502C47.8978 14.2041 47.8174 14.5046 47.8174 14.8516H44.1611C44.1611 14.2676 44.2965 13.7132 44.5674 13.1885C44.8382 12.6637 45.2318 12.2025 45.748 11.8047C46.2643 11.3984 46.8779 11.0811 47.5889 10.8525C48.3083 10.624 49.1123 10.5098 50.001 10.5098C51.0674 10.5098 52.0153 10.6875 52.8447 11.043C53.6742 11.3984 54.3258 11.9316 54.7998 12.6426C55.2822 13.3535 55.5234 14.2422 55.5234 15.3086V21.1865C55.5234 21.9398 55.57 22.5576 55.6631 23.04C55.7562 23.514 55.8916 23.9287 56.0693 24.2842V24.5H52.375C52.1973 24.1276 52.0618 23.6621 51.9688 23.1035C51.8841 22.5365 51.8418 21.9694 51.8418 21.4023ZM52.3242 16.1338L52.3496 18.2031H50.3057C49.8232 18.2031 49.4043 18.2581 49.0488 18.3682C48.6934 18.4782 48.4014 18.6348 48.1729 18.8379C47.9443 19.0326 47.7751 19.2611 47.665 19.5234C47.5635 19.7858 47.5127 20.0736 47.5127 20.3867C47.5127 20.6999 47.5846 20.9834 47.7285 21.2373C47.8724 21.4827 48.0798 21.6774 48.3506 21.8213C48.6214 21.9567 48.9388 22.0244 49.3027 22.0244C49.8529 22.0244 50.3311 21.9144 50.7373 21.6943C51.1436 21.4743 51.4567 21.2035 51.6768 20.8818C51.9053 20.5602 52.0238 20.2555 52.0322 19.9678L52.9971 21.5166C52.8617 21.8636 52.6755 22.2233 52.4385 22.5957C52.21 22.9681 51.918 23.3193 51.5625 23.6494C51.207 23.971 50.7796 24.2376 50.2803 24.4492C49.7809 24.6523 49.1885 24.7539 48.5029 24.7539C47.6312 24.7539 46.8398 24.5804 46.1289 24.2334C45.4264 23.8779 44.8678 23.3913 44.4531 22.7734C44.0469 22.1471 43.8438 21.4362 43.8438 20.6406C43.8438 19.9212 43.9792 19.2822 44.25 18.7236C44.5208 18.165 44.9186 17.6953 45.4434 17.3145C45.9766 16.9251 46.641 16.6331 47.4365 16.4385C48.2321 16.2354 49.1546 16.1338 50.2041 16.1338H52.3242Z" fill="white"/>
<path d="M28 6.01562H34.8936C36.307 6.01562 37.5215 6.22721 38.5371 6.65039C39.5612 7.07357 40.3483 7.69987 40.8984 8.5293C41.4486 9.35872 41.7236 10.3786 41.7236 11.5889C41.7236 12.5791 41.5544 13.4297 41.2158 14.1406C40.8857 14.8431 40.416 15.4313 39.8066 15.9053C39.2057 16.3708 38.499 16.7432 37.6865 17.0225L36.4805 17.6572H30.4883L30.4629 14.6865H34.9189C35.5876 14.6865 36.1419 14.568 36.582 14.3311C37.0221 14.0941 37.3522 13.764 37.5723 13.3408C37.8008 12.9176 37.915 12.4268 37.915 11.8682C37.915 11.2757 37.805 10.7637 37.585 10.332C37.3649 9.90039 37.0306 9.57031 36.582 9.3418C36.1335 9.11328 35.5706 8.99902 34.8936 8.99902H31.8086V24.5H28V6.01562ZM38.334 24.5L34.1191 16.2607L38.1436 16.2354L42.4092 24.3223V24.5H38.334Z" fill="white"/>
</svg>
